<svg width="56" height="10" viewBox="0 0 56 10" fill="none" xmlns="http://www.w3.org/2000/svg">
<path fill-rule="evenodd" clip-rule="evenodd" d="M0 4.99993V9.5L0.78401 9.45803L1.56802 9.41607L1.60442 5.744L1.64069 2.07193H2.97583C4.58448 2.07193 4.83427 2.2009 4.83427 3.0317C4.83427 3.79185 4.28478 4.38428 3.31029 4.67497C2.25877 4.98846 2.30772 5.23089 3.89496 7.57094L5.19928 9.49384L7.043 9.45496L8.88672 9.41607L10.2563 5.95383C11.0097 4.04953 11.6669 2.49159 11.7168 2.49159C11.8009 2.49159 12.9532 5.27537 12.9532 5.47849C12.9532 5.52829 12.5932 5.56914 12.1532 5.56914H11.3534L11.0744 6.25753C10.9212 6.6362 10.8312 6.98243 10.8746 7.02691C10.9179 7.07154 11.5721 7.10833 12.3283 7.10889L13.7031 7.10987L14.1675 8.29794L14.6319 9.48601H15.4969C15.9727 9.48601 16.3603 9.4702 16.3584 9.45104C16.3564 9.43187 15.5125 7.43315 14.4832 5.00958L12.6115 0.603098H11.7454H10.8793L9.08702 4.97027C8.10121 7.3723 7.25421 9.33941 7.20485 9.34178C7.15535 9.34416 6.52678 8.5198 5.80781 7.50981L4.50076 5.67349L5.08925 5.29062C6.15414 4.59775 6.63245 3.66637 6.50755 2.52894C6.42179 1.74906 6.07369 1.24421 5.37694 0.88931C4.92195 0.657515 4.47281 0.607155 2.4202 0.557914L0 0.5V4.99993ZM17.4527 5.00287V9.48601H18.2027H18.9526L18.9575 6.44344L18.9624 3.40087L20.1376 6.44344L21.3128 9.48601L22.0075 9.48503L22.7022 9.48419L23.162 8.26101C23.4149 7.58842 23.9364 6.21962 24.3209 5.21941L25.0201 3.40087L25.057 6.44344L25.0936 9.48601H25.8429H26.592L26.556 5.04455L26.52 0.603098H25.7193H24.9188L23.5814 3.75059C22.8459 5.48171 22.1924 6.98383 22.1293 7.08874C22.0513 7.21814 21.5472 6.20689 20.56 3.94126L19.1057 0.603098L18.2792 0.56141L17.4527 0.519864V5.00287ZM31.2472 0.728996C31.1069 0.920504 27.676 9.23687 27.6777 9.38109C27.6784 9.43887 28.0341 9.48601 28.4683 9.48601H29.2577L30.5956 6.07903C31.3314 4.20536 31.9766 2.60042 32.0295 2.51257C32.1038 2.38933 33.4048 5.2832 33.4059 5.57417C33.406 5.60984 33.038 5.61782 32.5881 5.59166L31.7701 5.54437L31.497 6.19779C31.3469 6.55731 31.224 6.90913 31.224 6.97963C31.224 7.05013 31.8624 7.10791 32.6426 7.10791H34.0611L34.53 8.26199L34.9987 9.41607L35.8384 9.45775C36.3002 9.48056 36.678 9.45957 36.678 9.41103C36.678 9.33381 33.589 1.94855 33.1242 0.91435C32.9603 0.549941 32.901 0.527558 32.1548 0.55064C31.7176 0.564069 31.3093 0.644364 31.2472 0.728996ZM37.8711 0.609113C37.8148 0.669964 37.7688 2.69205 37.7688 5.10289V9.48601H39.8074C42.2026 9.48601 42.9966 9.34025 43.8726 8.73957C45.0635 7.92304 45.6975 5.90794 45.3931 3.90782C45.1545 2.34051 44.4862 1.42396 43.2298 0.940927C42.6181 0.705635 42.0415 0.635412 40.2231 0.574141C38.9857 0.532594 37.9274 0.548261 37.8711 0.609113ZM48.8065 2.94623C48.259 4.27349 47.4316 6.27207 46.9682 7.38768L46.1253 9.41607L46.8755 9.45859C47.2881 9.48209 47.6738 9.45062 47.7327 9.38865C47.7915 9.32682 48.3615 7.95423 48.9994 6.33852C49.6374 4.72281 50.2612 3.15214 50.3858 2.84817L50.6123 2.29547L51.2807 3.95119C51.6484 4.86186 51.9493 5.61404 51.9495 5.62299C51.9496 5.6318 51.5809 5.61768 51.1301 5.59166L50.3105 5.5441L50.0421 6.15121C49.6147 7.11742 49.6034 7.10791 51.1755 7.10791H52.5833L53.0479 8.29696L53.5126 9.48601H54.3784C54.8546 9.48601 55.2239 9.42782 55.1988 9.35689C55.1738 9.28583 54.3274 7.27144 53.3179 4.88046L51.4823 0.533153H50.6421H49.8019L48.8065 2.94623ZM42.6747 2.38667C43.6889 2.91825 44.1038 4.26076 43.7674 5.92277C43.6374 6.56528 43.4857 6.87122 43.101 7.2657C42.4972 7.88527 41.8539 8.08531 40.4617 8.08629L39.405 8.08713V5.07953V2.07193H40.7396C41.8548 2.07193 42.1729 2.12368 42.6747 2.38667Z" fill="black"/>
</svg>
