<svg width="92" height="15" viewBox="0 0 92 15" fill="none" xmlns="http://www.w3.org/2000/svg">
<path fill-rule="evenodd" clip-rule="evenodd" d="M0 7.49988V15L1.30668 14.9301L2.61337 14.8601L2.67404 8.73999L2.73449 2.61988H4.95971C7.6408 2.61988 8.05712 2.83484 8.05712 4.2195C8.05712 5.48642 7.14131 6.4738 5.51716 6.95828C3.76461 7.48076 3.84619 7.88481 6.4916 11.7849L8.66547 14.9897L11.7383 14.9249L14.8112 14.8601L17.0939 9.08971C18.3495 5.91588 19.4448 3.31932 19.528 3.31932C19.6682 3.31932 21.5887 7.95895 21.5887 8.29748C21.5887 8.38048 20.9887 8.44856 20.2554 8.44856H18.9224L18.4574 9.59588C18.202 10.227 18.052 10.804 18.1243 10.8782C18.1965 10.9526 19.2869 11.0139 20.5472 11.0148L22.8385 11.0164L23.6126 12.9966L24.3866 14.9767H25.8282C26.6211 14.9767 27.2672 14.9503 27.264 14.9184C27.2606 14.8865 25.8541 11.5552 24.1386 7.51597L21.0192 0.171829H19.5757H18.1322L15.145 7.45045C13.502 11.4538 12.0903 14.7323 12.0081 14.7363C11.9256 14.7403 10.878 13.3663 9.67968 11.683L7.50127 8.62249L8.48208 7.98436C10.2569 6.82958 11.0541 5.27729 10.8459 3.38157C10.703 2.08177 10.1228 1.24034 8.96157 0.64885C8.20324 0.262525 7.45468 0.178591 4.03367 0.0965233L0 0V7.49988ZM29.0879 7.50478V14.9767H30.3378H31.5876L31.5958 9.90573L31.604 4.83478L33.5627 9.90573L35.5213 14.9767L36.6792 14.9751L37.837 14.9737L38.6033 12.935C39.0248 11.814 39.8941 9.53269 40.5349 7.86569L41.7002 4.83478L41.7616 9.90573L41.8227 14.9767H43.0715H44.32L44.26 7.57426L44.2 0.171829H42.8656H41.5314L39.3023 5.41764C38.0765 8.30284 36.9873 10.8064 36.8821 10.9812C36.7521 11.1969 35.912 9.51148 34.2667 5.73542L31.8428 0.171829L30.4653 0.102351L29.0879 0.0331065V7.50478ZM52.0787 0.381661C51.8449 0.700839 46.1266 14.5614 46.1295 14.8018C46.1307 14.8981 46.7236 14.9767 47.4471 14.9767H48.7629L50.9927 9.29838C52.2189 6.17561 53.2943 3.50071 53.3824 3.35429C53.5063 3.14889 55.6747 7.972 55.6765 8.45695C55.6767 8.5164 55.0634 8.52969 54.3135 8.48609L52.9502 8.40729L52.495 9.49632C52.2448 10.0955 52.0401 10.6819 52.0401 10.7994C52.0401 10.9169 53.1041 11.0132 54.4044 11.0132H56.7685L57.55 12.9366L58.3312 14.8601L59.7306 14.9296C60.5003 14.9676 61.13 14.9326 61.13 14.8517C61.13 14.723 55.9817 2.41424 55.207 0.690584C54.9339 0.0832349 54.835 0.0459299 53.5913 0.0843992C52.8627 0.106781 52.1821 0.240606 52.0787 0.381661ZM63.1185 0.181855C63.0246 0.283274 62.948 3.65342 62.948 7.67148V14.9767H66.3456C70.3377 14.9767 71.661 14.7337 73.1211 13.7326C75.1059 12.3717 76.1626 9.01324 75.6551 5.6797C75.2574 3.06752 74.1437 1.53994 72.0496 0.734879C71.0302 0.342725 70.0691 0.225686 67.0385 0.123568C64.9762 0.054323 63.2123 0.0804355 63.1185 0.181855ZM81.3441 4.07705C80.4317 6.28915 79.0527 9.62012 78.2803 11.4795L76.8755 14.8601L78.1258 14.931C78.8134 14.9702 79.4563 14.9177 79.5545 14.8144C79.6524 14.7114 80.6026 12.4237 81.6656 9.73087C82.7289 7.03802 83.7686 4.42024 83.9763 3.91361L84.3538 2.99245L85.4678 5.75198C86.0806 7.26977 86.5822 8.5234 86.5824 8.53832C86.5826 8.55301 85.9682 8.52946 85.2169 8.48609L83.8509 8.40683L83.4034 9.41868C82.6912 11.029 82.6724 11.0132 85.2925 11.0132H87.6389L88.4131 12.9949L89.1876 14.9767H90.6306C91.4244 14.9767 92.0398 14.8797 91.998 14.7615C91.9564 14.643 90.5456 11.2857 88.8631 7.30077L85.8039 0.0552558H84.4035H83.0032L81.3441 4.07705ZM71.1245 3.14446C72.8147 4.03042 73.5063 6.26793 72.9456 9.03796C72.7291 10.1088 72.4761 10.6187 71.8351 11.2762C70.8286 12.3088 69.7564 12.6422 67.4362 12.6438L65.675 12.6452V7.63254V2.61988H67.8993C69.758 2.61988 70.2882 2.70614 71.1245 3.14446Z" fill="black"/>
</svg>
